# xmcd
# 
# Track frame offsets:
#     150
#     12997
#     24942
#     38445
#     51303
#     65484
#     74925
#     91085
#     104772
#     117346
#     133026
#     147054
#     162012
#     172353
# 
# Disc length: 2447
# 
# Revision: 0
# Processed by: cddbd v1.5.2PL0 Copyright (c) Steve Scherf et al.
# Submitted via: fre:ac v1.0.17
# 
DISCID=c7098d0e
DTITLE=ITTALO FERNANDES - 5 SENTIDOS
DYEAR=2015
DGENRE=Country
TTITLE0=FERIADO PROLONGADO
TTITLE1=ESCONDIDO DO SEU PAI
TTITLE2=SE É PRA BEBER EU BEBO
TTITLE3=BRANCA DE NEVE
TTITLE4=A MAIS TOP
TTITLE5=DON JUAN LOBO MAU
TTITLE6=DE BOCA EM BOCA
TTITLE7=CORAÇÃO NÃO MENTE
TTITLE8=EU PROTESTO
TTITLE9=METADE DO SEU LIMÃO
TTITLE10=PROVA DE FOGO
TTITLE11=5 SENTIDOS
TTITLE12=TUDO O QUE VIER É POUCO
TTITLE13=CUPIDO DOIDO
EXTD=
EXTT0=
EXTT1=
EXTT2=
EXTT3=
EXTT4=
EXTT5=
EXTT6=
EXTT7=
EXTT8=
EXTT9=
EXTT10=
EXTT11=
EXTT12=
EXTT13=
PLAYORDER=
